<?xml version="1.0" standalone="no"?>
<!DOCTYPE svg PUBLIC "-//W3C//DTD SVG 20010904//EN"
 "http://www.w3.org/TR/2001/REC-SVG-20010904/DTD/svg10.dtd">
<svg version="1.0" xmlns="http://www.w3.org/2000/svg"
 width="500.000000pt" height="500.000000pt" viewBox="0 0 500.000000 500.000000"
 preserveAspectRatio="xMidYMid meet">
<metadata>
Created by potrace 1.14, written by Peter Selinger 2001-2017
</metadata>
<g transform="translate(0.000000,500.000000) scale(0.100000,-0.100000)"
fill="#000000" stroke="none">
<path d="M1910 4400 c-203 -42 -347 -240 -318 -437 16 -110 109 -240 199 -279
l38 -17 -3 -81 c-2 -78 11 -165 31 -201 8 -14 12 -6 17 35 27 203 162 414 358
563 49 36 49 37 21 37 -66 0 -207 -57 -262 -105 -15 -14 -49 -54 -76 -89 -27
-36 -52 -63 -57 -60 -14 9 -65 116 -82 173 -64 216 68 349 399 404 l80 14 -60
22 c-68 26 -211 36 -285 21z"/>
<path d="M2510 4289 c-85 -19 -144 -37 -210 -66 -46 -20 -152 -84 -147 -89 2
-2 27 5 56 16 50 18 103 30 196 46 41 7 235 14 235 9 0 -2 -20 -15 -45 -29
-188 -110 -321 -310 -354 -529 -4 -31 -7 -56 -5 -54 2 2 18 30 35 63 75 141
166 240 300 327 115 75 213 105 342 105 103 0 138 -6 227 -40 150 -58 277
-194 338 -362 22 -60 26 -89 26 -183 1 -126 9 -124 36 5 68 334 -120 628 -478
748 -130 43 -143 45 -317 49 -120 3 -167 0 -235 -16z"/>
<path d="M3015 3744 c-204 -33 -310 -124 -444 -378 -161 -304 -323 -465 -472
-468 -65 -2 -109 18 -127 55 -24 50 18 105 134 173 42 25 -82 1 -130 -24 -79
-43 -115 -115 -94 -186 15 -48 50 -78 132 -114 76 -33 146 -36 225 -8 156 53
322 234 448 489 105 211 219 320 400 387 78 28 206 51 246 44 9 -1 17 1 17 5
0 10 -130 31 -210 35 -30 1 -86 -3 -125 -10z"/>
<path d="M3358 3630 c-3 -8 -14 -53 -23 -100 -33 -171 -87 -304 -150 -374 -35
-39 -35 -40 -33 -126 2 -78 0 -90 -25 -133 -105 -179 -444 -273 -631 -176 -47
24 -49 22 -67 -70 -17 -88 -15 -220 5 -306 23 -96 85 -219 145 -285 l49 -55
-34 70 c-55 111 -73 198 -70 334 3 123 10 155 32 147 44 -17 187 -23 282 -13
l63 8 -7 -38 c-10 -51 -11 -91 -4 -134 6 -31 3 -38 -25 -59 -95 -72 -127 -200
-71 -285 19 -29 93 -85 113 -85 19 0 16 -14 -8 -36 -23 -21 -69 -108 -88 -166
-14 -42 -18 -44 -47 -24 -29 21 -97 37 -158 37 -57 1 -137 -28 -184 -67 l-23
-19 79 -1 c162 -2 270 -89 315 -254 27 -99 29 -110 13 -110 -8 0 -53 18 -100
40 -92 42 -100 35 -34 -25 59 -54 100 -78 180 -105 130 -44 208 -19 276 87 35
54 88 209 97 281 4 26 9 56 12 67 9 32 -6 13 -128 -168 -107 -160 -158 -217
-194 -217 -21 0 -25 26 -26 163 -1 322 95 483 305 515 l51 8 -39 17 c-48 21
-89 29 -139 28 -41 -1 -107 -25 -118 -43 -10 -16 -97 77 -107 115 -4 17 -6 43
-4 59 5 34 68 107 115 132 34 19 34 19 40 105 9 154 68 253 170 287 67 22 200
15 280 -16 113 -43 187 -142 203 -271 11 -87 -44 -260 -115 -364 -34 -49 -24
-49 24 2 71 75 133 172 160 248 33 97 31 216 -6 296 -67 143 -256 258 -426
259 l-42 0 15 37 c10 22 17 75 19 137 2 93 5 106 38 171 45 88 65 182 64 310
-1 109 -10 189 -19 165z"/>
<path d="M2800 3225 c0 -19 47 -69 77 -81 44 -19 104 -4 132 33 27 33 29 62 4
42 -22 -19 -174 -19 -197 0 -9 7 -16 10 -16 6z"/>
<path d="M2070 2642 c0 -4 4 -12 9 -17 30 -34 34 -164 5 -196 -24 -27 -89 -42
-148 -34 -113 15 -290 15 -356 -1 -202 -47 -306 -165 -315 -359 -12 -236 133
-517 418 -815 219 -228 496 -432 784 -577 79 -40 100 -46 152 -45 79 0 144 30
269 124 96 72 265 232 335 318 106 129 227 342 286 506 18 49 34 96 36 104 2
8 6 24 10 35 4 11 -2 5 -14 -13 -12 -18 -21 -35 -21 -37 0 -8 -109 -183 -149
-240 -111 -158 -280 -330 -429 -435 -97 -69 -277 -170 -303 -170 -45 0 -378
215 -572 370 -392 313 -616 637 -618 893 -1 169 99 232 386 243 169 7 233 23
275 71 29 33 34 52 32 122 -2 46 -72 196 -72 153z"/>
<path d="M2000 1966 c0 -2 26 -31 58 -63 122 -124 219 -243 309 -378 32 -49
69 -106 81 -125 27 -43 27 -34 3 53 -62 217 -208 394 -408 496 -24 12 -43 19
-43 17z"/>
</g>
</svg>
